<?xml version="1.0" standalone="no"?>
<!DOCTYPE svg PUBLIC "-//W3C//DTD SVG 20010904//EN"
 "http://www.w3.org/TR/2001/REC-SVG-20010904/DTD/svg10.dtd">
<svg version="1.0" xmlns="http://www.w3.org/2000/svg"
 width="103.000000pt" height="128.000000pt" viewBox="0 0 103.000000 128.000000"
 preserveAspectRatio="xMidYMid meet">

<g transform="translate(0.000000,128.000000) scale(0.100000,-0.100000)"
fill="red" stroke="#fff">
<path d="M228 1102 l-138 -3 0 -134 0 -135 374 0 c321 0 375 2 380 15 3 9 12
12 23 9 14 -5 14 -3 -3 9 -18 14 -21 27 -23 124 -1 59 -4 109 -6 111 -5 5
-426 8 -607 4z m157 -66 c22 -33 6 -72 -34 -81 -26 -5 -31 -11 -31 -36 0 -19
-5 -29 -15 -29 -12 0 -15 16 -15 85 l0 85 40 0 c31 0 43 -5 55 -24z m126 5
c19 -15 24 -29 24 -64 0 -59 -24 -87 -77 -87 l-38 0 0 85 0 85 34 0 c19 0 44
-9 57 -19z m137 7 c-3 -7 -17 -14 -31 -16 -37 -4 -38 -42 -2 -42 16 0 25 -6
25 -15 0 -9 -9 -15 -25 -15 -22 0 -25 -4 -25 -35 0 -28 -4 -35 -19 -35 -16 0
-19 9 -20 85 l-2 85 51 0 c37 0 50 -4 48 -12z"/>
<path d="M320 1008 c0 -23 4 -29 18 -26 25 5 28 44 3 51 -18 4 -21 0 -21 -25z"/>
<path d="M450 975 c0 -67 4 -74 34 -52 27 20 19 97 -11 108 -22 8 -23 7 -23
-56z"/>
<path d="M392 808 c-17 -17 -15 -96 4 -179 l16 -70 -79 -157 c-60 -120 -91
-170 -135 -216 -68 -72 -79 -55 -16 24 50 63 20 53 -36 -12 -43 -49 -45 -64
-11 -80 35 -16 67 9 127 99 43 65 53 73 105 93 32 12 91 29 131 37 73 15 74
15 132 -11 78 -35 151 -44 169 -22 12 14 12 16 -3 10 -20 -8 -146 24 -146 37
0 13 117 11 142 -2 17 -9 19 -8 16 8 -3 16 -17 19 -120 23 -110 5 -118 7 -145
32 -35 33 -94 129 -95 154 -1 11 1 42 5 69 6 49 6 50 -6 16 -17 -46 -27 -29
-34 59 -4 49 -2 74 7 85 10 12 10 15 -2 15 -8 0 -19 -5 -26 -12z m109 -381
c26 -27 42 -50 36 -52 -7 -2 -43 -11 -81 -20 -38 -9 -84 -22 -101 -30 l-33
-13 51 103 c50 99 53 102 67 82 8 -12 35 -44 61 -70z"/>
<path d="M440 805 c1 -6 7 -21 16 -35 l15 -25 -7 25 c-7 26 -24 52 -24 35z"/>
</g>
</svg>
